<svg width="600" height="400" viewBox="0 0 600 400" fill="none" xmlns="http://www.w3.org/2000/svg">
  <defs>
    <linearGradient id="gradient" x1="0" y1="0" x2="600" y2="400" gradientUnits="userSpaceOnUse">
      <stop offset="0%" stop-color="#2563EB" stop-opacity="0.85" />
      <stop offset="100%" stop-color="#16A34A" stop-opacity="0.85" />
    </linearGradient>
  </defs>
  <rect width="600" height="400" rx="24" fill="url(#gradient)" />
  <g fill="white" fill-opacity="0.9">
    <path d="M300 120c-64.3 0-116.3 52-116.3 116.3 0 37.8 18.1 71.2 46.1 92.3h140.4c28-21.1 46.1-54.5 46.1-92.3C416.3 172 364.3 120 300 120zm0 32c46.4 0 84.3 37.9 84.3 84.3 0 22.7-8.9 43.3-23.3 58.5H239c-14.4-15.2-23.3-35.8-23.3-58.5 0-46.4 37.9-84.3 84.3-84.3z" />
    <path d="M300 174c-34.4 0-62.3 27.9-62.3 62.3 0 15.6 5.8 29.9 15.3 40.8h94c9.5-10.9 15.3-25.2 15.3-40.8 0-34.4-27.9-62.3-62.3-62.3zm0 28c18.9 0 34.3 15.4 34.3 34.3 0 7.7-2.6 14.8-7 20.5h-54.6c-4.4-5.7-7-12.8-7-20.5 0-18.9 15.4-34.3 34.3-34.3z" />
    <circle cx="300" cy="236" r="16" />
  </g>
  <text x="300" y="340" text-anchor="middle" fill="white" font-size="32" font-family="'Segoe UI', Arial, sans-serif" font-weight="600" opacity="0.95">SportZone</text>
</svg>
